<svg xmlns="http://www.w3.org/2000/svg" width="988" height="866" viewBox="0 0 988 866">
  <defs>
    <marker id="arrow" viewBox="0 0 10 10" refX="9" refY="5" markerWidth="8" markerHeight="8" orient="auto">
      <path d="M0 0L10 5L0 10z" fill="#868e96"/>
    </marker>
    <style>
      .text{font-family:Virgil,Inter,Arial,sans-serif;fill:#1e1e1e}
      .mono{font-family:Cascadia,Menlo,monospace}
      .small{font-size:20px}
      .tiny{font-size:17px;fill:#868e96}
      .label{font-size:24px;font-weight:600}
      .bar{stroke-width:2.5;rx:12;ry:12}
      .arrow{stroke:#868e96;stroke-width:2.5;fill:none;marker-end:url(#arrow)}
      .dash{fill:none;stroke:#495057;stroke-width:2.5;stroke-dasharray:10 8;rx:18;ry:18}
    </style>
  </defs>

  <text x="494" y="40" text-anchor="middle" class="text" style="font-size:32px">Systematic hash → OOD row → barycentric check</text>
  <rect x="18" y="70" width="742" height="765" class="dash"/>
  <text x="24" y="62" class="text small" fill="#495057">ZKVM Circuit</text>
  <text x="775" y="94" class="text tiny">Private witness: natural-order rows</text>
  <text x="775" y="122" class="text tiny">Public: dᵢ, D, z, αᵢ, ood_root</text>

  <text x="28" y="118" class="text label" fill="#1971c2">① Hash systematic prefixes</text>
  <text x="66" y="153" class="text tiny" fill="#1971c2">C₀</text>
  <rect x="95" y="130" width="610" height="34" fill="#d0ebff" stroke="#1971c2" class="bar"/>
  <text x="400" y="153" text-anchor="middle" class="text mono tiny" fill="#1971c2">C₀[0] C₀[1] ··· C₀[M-1]  →  d₀</text>
  <text x="66" y="196" class="text tiny" fill="#1971c2">C₁</text>
  <rect x="95" y="173" width="610" height="34" fill="#d0ebff" stroke="#1971c2" class="bar"/>
  <text x="400" y="196" text-anchor="middle" class="text mono tiny" fill="#1971c2">C₁[0] C₁[1] ··· C₁[M-1]  →  d₁</text>
  <text x="66" y="239" class="text tiny" fill="#1971c2">C₂</text>
  <rect x="95" y="216" width="610" height="34" fill="#d0ebff" stroke="#1971c2" class="bar"/>
  <text x="400" y="239" text-anchor="middle" class="text mono tiny" fill="#1971c2">C₂[0] C₂[1] ··· C₂[M-1]  →  d₂</text>
  <path d="M400 252 C400 270 400 279 400 294" class="arrow"/>
  <rect x="150" y="310" width="500" height="48" fill="#fff3bf" stroke="#f59f00" class="bar"/>
  <text x="400" y="341" text-anchor="middle" class="text mono small" fill="#e67700">D = H(d₀, …, dᴮ₋₁),   z = H(D)</text>

  <path d="M400 360 C400 382 400 392 400 412" class="arrow"/>
  <text x="28" y="404" class="text label" fill="#2b8a3e">② Compose OOD row</text>
  <text x="72" y="452" class="text small" fill="#e67700">α₀ ·</text>
  <rect x="122" y="426" width="610" height="36" fill="#d0ebff" stroke="#1971c2" class="bar"/>
  <text x="426" y="450" text-anchor="middle" class="text mono tiny" fill="#1971c2">C₀[0] C₀[1] C₀[2] ··· C₀[2M-1]</text>
  <text x="55" y="493" class="text small">+</text>
  <text x="72" y="526" class="text small" fill="#e67700">α₁ ·</text>
  <rect x="122" y="500" width="610" height="36" fill="#d0ebff" stroke="#1971c2" class="bar"/>
  <text x="426" y="524" text-anchor="middle" class="text mono tiny" fill="#1971c2">C₁[0] C₁[1] C₁[2] ··· C₁[2M-1]</text>
  <text x="55" y="566" class="text small">+</text>
  <text x="72" y="600" class="text small" fill="#e67700">α₂ ·</text>
  <rect x="122" y="574" width="610" height="36" fill="#d0ebff" stroke="#1971c2" class="bar"/>
  <text x="426" y="598" text-anchor="middle" class="text mono tiny" fill="#1971c2">C₂[0] C₂[1] C₂[2] ··· C₂[2M-1]</text>
  <line x1="122" y1="634" x2="732" y2="634" stroke="#1e1e1e" stroke-width="3"/>
  <text x="55" y="644" class="text small">=</text>
  <rect x="122" y="656" width="610" height="42" fill="#d3f9d8" stroke="#2b8a3e" class="bar"/>
  <text x="426" y="684" text-anchor="middle" class="text mono small" fill="#2b8a3e">OOD[j] = Σᵢ αᵢ(z) · Cᵢ[j]</text>
  <text x="775" y="682" class="text tiny">αᵢ = (zᴮ-1)/(z h⁻ⁱ-1)</text>

  <path d="M426 700 C426 718 426 726 426 744" class="arrow"/>
  <text x="28" y="736" class="text label" fill="#6741d9">③ Commit then check once</text>
  <rect x="70" y="758" width="205" height="46" fill="#fff3bf" stroke="#f59f00" class="bar"/>
  <text x="173" y="787" text-anchor="middle" class="text mono small" fill="#e67700">ood_root</text>
  <rect x="305" y="758" width="250" height="46" fill="#e5dbff" stroke="#6741d9" class="bar"/>
  <text x="430" y="787" text-anchor="middle" class="text mono tiny" fill="#6741d9">r = H(D,z,ood_root)</text>
  <rect x="585" y="758" width="150" height="46" fill="#ffe3e3" stroke="#e03131" class="bar"/>
  <text x="660" y="787" text-anchor="middle" class="text mono tiny" fill="#e03131">bary LDT</text>
</svg>
