<svg xmlns="http://www.w3.org/2000/svg" viewBox="0 0 1600 1040" width="1600" height="1040" class="excalidraw-svg" role="img">
  <style>
    .hand { font-family: "Virgil", "Comic Sans MS", "Bradley Hand", "Segoe Print", cursive; }
  </style>
  <rect width="1600" height="1040" fill="#ffffff"/>
<text class="hand" font-size="30" font-weight="700" fill="#1e1e1e"><tspan x="800" y="48" text-anchor="middle">EIP-8025 - Execution Proof Flow</tspan></text>
<rect x="40" y="82" width="590" height="880" rx="0" fill="#e3f2fd" stroke="#1565c0" stroke-width="3.5" stroke-dasharray="14 12"/>
<text class="hand" font-size="28" font-weight="700" fill="#1e1e1e"><tspan x="72" y="128" text-anchor="start">Proof-generating node (opt-in)</tspan></text>
<rect x="970" y="82" width="590" height="880" rx="0" fill="#e8f5e9" stroke="#2e7d32" stroke-width="3.5" stroke-dasharray="14 12"/>
<text class="hand" font-size="28" font-weight="700" fill="#1e1e1e"><tspan x="1002" y="128" text-anchor="start">Proof-verifying node (opt-in)</tspan></text>
<rect x="92" y="174" width="486" height="126" rx="0" fill="#bbdefb" stroke="#1e1e1e" stroke-width="4"/>
<text class="hand" font-size="32" font-weight="700" fill="#1e1e1e"><tspan x="335" y="233.80" text-anchor="middle">Beacon Node (prover)</tspan><tspan x="335" y="269" text-anchor="middle">active validator</tspan></text>
<rect x="92" y="444" width="486" height="126" rx="0" fill="#bbdefb" stroke="#1e1e1e" stroke-width="4"/>
<text class="hand" font-size="32" font-weight="700" fill="#1e1e1e"><tspan x="335" y="503.80" text-anchor="middle">ProofEngine</tspan><tspan x="335" y="539" text-anchor="middle">request_proofs</tspan></text>
<rect x="92" y="714" width="486" height="126" rx="0" fill="#bbdefb" stroke="#1e1e1e" stroke-width="4"/>
<text class="hand" font-size="29" font-weight="700" fill="#1e1e1e"><tspan x="335" y="774.10" text-anchor="middle">Proof Node</tspan><tspan x="335" y="806" text-anchor="middle">(runs guest, produces proof)</tspan></text>
<rect x="1022" y="174" width="486" height="126" rx="0" fill="#c8e6c9" stroke="#1e1e1e" stroke-width="4"/>
<text class="hand" font-size="32" font-weight="700" fill="#1e1e1e"><tspan x="1265" y="233.80" text-anchor="middle">Beacon Node (verifier)</tspan><tspan x="1265" y="269" text-anchor="middle">stateless verification</tspan></text>
<rect x="1022" y="444" width="486" height="126" rx="0" fill="#c8e6c9" stroke="#1e1e1e" stroke-width="4"/>
<text class="hand" font-size="32" font-weight="700" fill="#1e1e1e"><tspan x="1265" y="503.80" text-anchor="middle">ProofEngine</tspan><tspan x="1265" y="539" text-anchor="middle">verify_execution_proof</tspan></text>
<rect x="1022" y="714" width="486" height="126" rx="0" fill="#c8e6c9" stroke="#1e1e1e" stroke-width="4"/>
<text class="hand" font-size="31" font-weight="700" fill="#1e1e1e"><tspan x="1265" y="773.90" text-anchor="middle">Proof Node</tspan><tspan x="1265" y="808" text-anchor="middle">(verifies ExecutionProof)</tspan></text>
<ellipse cx="800" cy="513" rx="162" ry="95" fill="#fff8e1" stroke="#ef6c00" stroke-width="4"/>
<text class="hand" font-size="25" font-weight="700" fill="#ef6c00"><tspan x="800" y="480" text-anchor="middle">CL p2p</tspan><tspan x="800" y="506.25" text-anchor="middle">execution_proof topic</tspan><tspan x="800" y="532.50" text-anchor="middle">SignedExecutionProof</tspan></text>
<g>
  <line x1="300" y1="300" x2="300" y2="444" stroke="#1565c0" stroke-width="4" stroke-linecap="round"/>
  <line x1="289" y1="416" x2="300" y2="444" stroke="#1565c0" stroke-width="4" stroke-linecap="round"/>
<line x1="311" y1="416" x2="300" y2="444" stroke="#1565c0" stroke-width="4" stroke-linecap="round"/>
</g>
<text class="hand" font-size="27" font-weight="700" fill="#1565c0"><tspan x="246" y="372" text-anchor="end">1. request</tspan></text>
<g>
  <line x1="300" y1="570" x2="300" y2="714" stroke="#1565c0" stroke-width="4" stroke-linecap="round"/>
  <line x1="289" y1="686" x2="300" y2="714" stroke="#1565c0" stroke-width="4" stroke-linecap="round"/>
<line x1="311" y1="686" x2="300" y2="714" stroke="#1565c0" stroke-width="4" stroke-linecap="round"/>
</g>
<text class="hand" font-size="27" font-weight="700" fill="#1565c0"><tspan x="246" y="642" text-anchor="end">2. generate</tspan></text>
<g>
  <line x1="410" y1="714" x2="410" y2="570" stroke="#1565c0" stroke-width="4" stroke-linecap="round"/>
  <line x1="421" y1="598" x2="410" y2="570" stroke="#1565c0" stroke-width="4" stroke-linecap="round"/>
<line x1="399" y1="598" x2="410" y2="570" stroke="#1565c0" stroke-width="4" stroke-linecap="round"/>
</g>
<text class="hand" font-size="27" font-weight="700" fill="#1565c0"><tspan x="464" y="642" text-anchor="start">3. ready</tspan></text>
<g>
  <line x1="410" y1="444" x2="410" y2="300" stroke="#1565c0" stroke-width="4" stroke-linecap="round"/>
  <line x1="421" y1="328" x2="410" y2="300" stroke="#1565c0" stroke-width="4" stroke-linecap="round"/>
<line x1="399" y1="328" x2="410" y2="300" stroke="#1565c0" stroke-width="4" stroke-linecap="round"/>
</g>
<text class="hand" font-size="27" font-weight="700" fill="#1565c0"><tspan x="464" y="372" text-anchor="start">4. proof</tspan></text>
<g>
  <path d="M 578 292 Q 622 382 638 466" fill="none" stroke="#ef6c00" stroke-width="4" stroke-linecap="round"/>
  <line x1="621.96" y1="440.55" x2="638" y2="466" stroke="#ef6c00" stroke-width="4" stroke-linecap="round"/>
<line x1="643.57" y1="436.44" x2="638" y2="466" stroke="#ef6c00" stroke-width="4" stroke-linecap="round"/>
</g>
<text class="hand" font-size="31" font-weight="700" fill="#ef6c00"><tspan x="610" y="352" text-anchor="start">5</tspan></text>
<g>
  <path d="M 962 466 Q 978 378 1022 292" fill="none" stroke="#ef6c00" stroke-width="4" stroke-linecap="round"/>
  <line x1="1019.04" y1="321.94" x2="1022" y2="292" stroke="#ef6c00" stroke-width="4" stroke-linecap="round"/>
<line x1="999.45" y1="311.92" x2="1022" y2="292" stroke="#ef6c00" stroke-width="4" stroke-linecap="round"/>
</g>
<text class="hand" font-size="31" font-weight="700" fill="#ef6c00"><tspan x="972" y="352" text-anchor="start">6</tspan></text>
<g>
  <line x1="1242" y1="300" x2="1242" y2="444" stroke="#2e7d32" stroke-width="4" stroke-linecap="round"/>
  <line x1="1231" y1="416" x2="1242" y2="444" stroke="#2e7d32" stroke-width="4" stroke-linecap="round"/>
<line x1="1253" y1="416" x2="1242" y2="444" stroke="#2e7d32" stroke-width="4" stroke-linecap="round"/>
</g>
<text class="hand" font-size="26" font-weight="700" fill="#2e7d32"><tspan x="1188" y="372" text-anchor="end">7. check proof</tspan></text>
<g>
  <line x1="1242" y1="570" x2="1242" y2="714" stroke="#2e7d32" stroke-width="4" stroke-linecap="round"/>
  <line x1="1231" y1="686" x2="1242" y2="714" stroke="#2e7d32" stroke-width="4" stroke-linecap="round"/>
<line x1="1253" y1="686" x2="1242" y2="714" stroke="#2e7d32" stroke-width="4" stroke-linecap="round"/>
</g>
<text class="hand" font-size="27" font-weight="700" fill="#2e7d32"><tspan x="1188" y="642" text-anchor="end">8. verify</tspan></text>
<g>
  <line x1="1308" y1="714" x2="1308" y2="570" stroke="#2e7d32" stroke-width="4" stroke-linecap="round"/>
  <line x1="1319" y1="598" x2="1308" y2="570" stroke="#2e7d32" stroke-width="4" stroke-linecap="round"/>
<line x1="1297" y1="598" x2="1308" y2="570" stroke="#2e7d32" stroke-width="4" stroke-linecap="round"/>
</g>
<text class="hand" font-size="27" font-weight="700" fill="#2e7d32"><tspan x="1362" y="642" text-anchor="start">9. valid/invalid</tspan></text>
<g>
  <line x1="1308" y1="444" x2="1308" y2="300" stroke="#2e7d32" stroke-width="4" stroke-linecap="round"/>
  <line x1="1319" y1="328" x2="1308" y2="300" stroke="#2e7d32" stroke-width="4" stroke-linecap="round"/>
<line x1="1297" y1="328" x2="1308" y2="300" stroke="#2e7d32" stroke-width="4" stroke-linecap="round"/>
</g>
<text class="hand" font-size="27" font-weight="700" fill="#2e7d32"><tspan x="1362" y="372" text-anchor="start">10. result</tspan></text>
</svg>
